<svg height="512" viewBox="0 0 64 64" width="512" xmlns="http://www.w3.org/2000/svg"><g id="virus-coronavirus-flu-influenza-bacteria"><path d="m59.11 48.5a2.994 2.994 0 0 1 -5.5-.77l-9.92-4.83a14.833 14.833 0 0 1 -1.46 1.4l5.5 11.31a3 3 0 1 1 -3.61 2.08l-7.11-10.5a15.512 15.512 0 0 1 -2.35.58v.01a16.191 16.191 0 0 1 -5.32 0v-.01a15.512 15.512 0 0 1 -2.35-.58l-7.11 10.5a3 3 0 1 1 -3.61-2.08l5.5-11.31a14.833 14.833 0 0 1 -1.46-1.4l-9.92 4.83a3 3 0 1 1 -2.08-3.61l8.9-6.02a15.272 15.272 0 0 1 -.98-3.44h-.01a16.191 16.191 0 0 1 0-5.32h.01a15.272 15.272 0 0 1 .98-3.44l-8.9-6.02a3 3 0 1 1 2.08-3.61l9.92 4.83a14.833 14.833 0 0 1 1.46-1.4l-5.5-11.31a3 3 0 1 1 3.61-2.08l7.11 10.5a15.512 15.512 0 0 1 2.35-.58v-.01a16.191 16.191 0 0 1 5.32 0v.01a15.512 15.512 0 0 1 2.35.58l7.11-10.5a3 3 0 1 1 3.61 2.08l-5.5 11.31a14.833 14.833 0 0 1 1.46 1.4l9.92-4.83a3 3 0 1 1 2.08 3.61l-8.9 6.02a15.272 15.272 0 0 1 .98 3.44h.01a16.191 16.191 0 0 1 0 5.32h-.01a15.272 15.272 0 0 1 -.98 3.44l8.9 6.02a2.991 2.991 0 0 1 3.42 4.38z" fill="#d43237"/><path d="m58 29a3 3 0 0 1 0 6 2.942 2.942 0 0 1 -2.15-.92l-8.08.58-4.77.34v-6l4.77.34 8.08.58a2.942 2.942 0 0 1 2.15-.92z" fill="#ff3051"/><path d="m34.66 16.23.34 4.77h-6l.34-4.77.58-8.08a2.942 2.942 0 0 1 -.92-2.15 3 3 0 0 1 6 0 2.942 2.942 0 0 1 -.92 2.15z" fill="#ff3051"/><path d="m35 43-.34 4.77-.58 8.08a2.942 2.942 0 0 1 .92 2.15 3 3 0 0 1 -6 0 2.942 2.942 0 0 1 .92-2.15l-.58-8.08-.34-4.77z" fill="#ff3051"/><circle cx="32" cy="32" fill="#ffcd00" r="3"/><path d="m35 32a3 3 0 0 1 -4.5 2.6 3 3 0 0 0 0-5.2 3 3 0 0 1 4.5 2.6z" fill="#ddb200"/><g fill="#ff3051"><path d="m21 29v6l-4.77-.34-8.08-.58a2.942 2.942 0 0 1 -2.15.92 3 3 0 0 1 0-6 2.942 2.942 0 0 1 2.15.92l8.08-.58z"/><path d="m61 32a3 3 0 0 1 -3 3 2.942 2.942 0 0 1 -2.15-.92l-8.07.58h-.01l-4.77.34v-6l4.77.34h.01l8.07.58a2.942 2.942 0 0 1 2.15-.92 3 3 0 0 1 3 3z"/><path d="m35 21h-6l.34-4.77v-.01a16.191 16.191 0 0 1 5.32 0v.01z"/><path d="m35 43-.34 4.77v.01a16.191 16.191 0 0 1 -5.32 0v-.01l-.34-4.77z"/><path d="m21 29v6l-4.77-.34h-.01a16.191 16.191 0 0 1 0-5.32h.01z"/></g><path d="m55.49 35.11a3.928 3.928 0 0 0 2.51.89 4 4 0 0 0 0-8 3.928 3.928 0 0 0 -2.51.89l-6.9-.49a16.268 16.268 0 0 0 -.58-2.12l7.88-5.33a4 4 0 0 0 1.66-7.81 4 4 0 0 0 -4.76 2.42l-8.88 4.32c-.15-.15-.3-.29-.45-.43l4.98-10.24a3.884 3.884 0 0 0 2.02-1.73 3.919 3.919 0 0 0 .4-3.03 3.914 3.914 0 0 0 -1.86-2.42 3.991 3.991 0 0 0 -5.47 1.46 4.014 4.014 0 0 0 -.48 2.62l-6.45 9.53c-.34-.1-.67-.15-1-.22l-.49-6.91a3.928 3.928 0 0 0 .89-2.51 4 4 0 0 0 -8 0 3.928 3.928 0 0 0 .89 2.51l-.49 6.91c-.33.07-.66.12-1 .22l-6.45-9.53a4 4 0 0 0 -7.81-1.66 3.919 3.919 0 0 0 .4 3.03 3.884 3.884 0 0 0 2.02 1.73l4.98 10.24c-.15.14-.3.28-.45.43l-8.88-4.32a3.884 3.884 0 0 0 -1.73-2.02 3.985 3.985 0 0 0 -5.45 1.46 3.991 3.991 0 0 0 1.46 5.47 4.014 4.014 0 0 0 2.62.48l7.88 5.33a16.268 16.268 0 0 0 -.58 2.12l-6.9.49a3.928 3.928 0 0 0 -2.51-.89 4 4 0 0 0 0 8 3.928 3.928 0 0 0 2.51-.89l6.9.49a16.268 16.268 0 0 0 .58 2.12l-7.88 5.33a4 4 0 0 0 -1.66 7.81 3.919 3.919 0 0 0 3.03-.4 3.884 3.884 0 0 0 1.73-2.02l8.88-4.32c.15.15.3.29.45.43l-4.98 10.24a3.99 3.99 0 0 0 -.56 7.18 3.935 3.935 0 0 0 2 .55 4.055 4.055 0 0 0 1.03-.14 3.99 3.99 0 0 0 2.92-4.49l6.45-9.53c.34.1.67.15 1 .22l.49 6.91a3.928 3.928 0 0 0 -.89 2.51 4 4 0 0 0 8 0 3.928 3.928 0 0 0 -.89-2.51l.49-6.91c.33-.07.66-.12 1-.22l6.45 9.53a4 4 0 0 0 2.92 4.49 3.935 3.935 0 0 0 3.03-.4 3.96 3.96 0 0 0 1.86-2.43 4 4 0 0 0 -2.42-4.76l-4.98-10.24c.15-.14.3-.28.45-.43l8.88 4.32a3.99 3.99 0 0 0 7.18.56 3.991 3.991 0 0 0 -4.08-5.95l-7.88-5.33a16.268 16.268 0 0 0 .58-2.12zm-12.42.89 3.44-.25a16.142 16.142 0 0 1 -.64 1.97.992.992 0 0 0 .36 1.21l8.9 6.02a1.035 1.035 0 0 0 .84.13 2.048 2.048 0 0 1 1.55.18 2.006 2.006 0 0 1 .72 2.74 1.961 1.961 0 0 1 -1.21.93 1.991 1.991 0 0 1 -1.51-.19 2.011 2.011 0 0 1 -.94-1.25 1.008 1.008 0 0 0 -.53-.66l-9.92-4.83a1.022 1.022 0 0 0 -1.18.22 12.655 12.655 0 0 1 -1.36 1.31 1.01 1.01 0 0 0 -.26 1.21l5.5 11.31a1.008 1.008 0 0 0 .66.53 2.011 2.011 0 0 1 1.25.94 2.018 2.018 0 0 1 -.74 2.73 2.06 2.06 0 0 1 -1.52.2 1.981 1.981 0 0 1 -1.21-.92 2.036 2.036 0 0 1 -.19-1.56 1.035 1.035 0 0 0 -.13-.84l-7.11-10.5a1 1 0 0 0 -1.14-.39c-.32.1-.63.19-.95.27l.25-3.44-2-.14-.92 12.85a1 1 0 0 0 .31.79 2 2 0 1 1 -2.78 0 1 1 0 0 0 .31-.79l-.92-12.85-2 .14.25 3.44c-.32-.08-.63-.17-.95-.27a1 1 0 0 0 -1.14.39l-7.11 10.5a1.035 1.035 0 0 0 -.13.84 2.048 2.048 0 0 1 -.18 1.55 2 2 0 0 1 -2.74.72 1.961 1.961 0 0 1 -.93-1.21 1.991 1.991 0 0 1 .19-1.51 2.011 2.011 0 0 1 1.25-.94 1.008 1.008 0 0 0 .66-.53l5.5-11.31a1.01 1.01 0 0 0 -.26-1.21 12.655 12.655 0 0 1 -1.36-1.31 1.022 1.022 0 0 0 -1.18-.22l-9.92 4.83a1.008 1.008 0 0 0 -.53.66 2.011 2.011 0 0 1 -.94 1.25 1.985 1.985 0 0 1 -1.51.19 2 2 0 0 1 -.5-3.66 2.036 2.036 0 0 1 1.56-.19 1.035 1.035 0 0 0 .84-.13l8.9-6.02a.992.992 0 0 0 .36-1.21 16.142 16.142 0 0 1 -.64-1.97l3.44.25.14-2-12.85-.92a1.032 1.032 0 0 0 -.79.31 2 2 0 1 1 0-2.78 1.07 1.07 0 0 0 .79.31l12.85-.92-.14-2-3.44.25a16.142 16.142 0 0 1 .64-1.97.992.992 0 0 0 -.36-1.21l-8.9-6.02a1 1 0 0 0 -.84-.13 2.048 2.048 0 0 1 -1.55-.18 2.006 2.006 0 0 1 -.72-2.74 1.961 1.961 0 0 1 1.21-.93 1.985 1.985 0 0 1 1.51.19 2.011 2.011 0 0 1 .94 1.25 1.008 1.008 0 0 0 .53.66l9.92 4.83a1.022 1.022 0 0 0 1.18-.22 12.655 12.655 0 0 1 1.36-1.31 1.01 1.01 0 0 0 .26-1.21l-5.5-11.31a1.008 1.008 0 0 0 -.66-.53 2.011 2.011 0 0 1 -1.25-.94 2.018 2.018 0 0 1 .74-2.73 2.06 2.06 0 0 1 1.52-.2 1.981 1.981 0 0 1 1.21.92 2.036 2.036 0 0 1 .19 1.56 1.035 1.035 0 0 0 .13.84l7.11 10.5a1 1 0 0 0 1.14.39c.32-.1.63-.19.95-.27l-.25 3.44 2 .14.92-12.85a1 1 0 0 0 -.31-.79 2 2 0 1 1 2.78 0 1 1 0 0 0 -.31.79l.92 12.85 2-.14-.25-3.44c.32.08.63.17.95.27a1 1 0 0 0 1.14-.39l7.11-10.5a1.035 1.035 0 0 0 .13-.84 2.048 2.048 0 0 1 .18-1.55 2 2 0 0 1 2.74-.72 1.961 1.961 0 0 1 .93 1.21 1.991 1.991 0 0 1 -.19 1.51 2.011 2.011 0 0 1 -1.25.94 1.008 1.008 0 0 0 -.66.53l-5.5 11.31a1.01 1.01 0 0 0 .26 1.21 12.655 12.655 0 0 1 1.36 1.31 1.022 1.022 0 0 0 1.18.22l9.92-4.83a1.008 1.008 0 0 0 .53-.66 2.011 2.011 0 0 1 .94-1.25 1.985 1.985 0 0 1 1.51-.19 2 2 0 0 1 .5 3.66 2.031 2.031 0 0 1 -1.56.19 1 1 0 0 0 -.84.13l-8.9 6.02a.992.992 0 0 0 -.36 1.21 16.142 16.142 0 0 1 .64 1.97l-3.44-.25-.14 2 12.85.92a1.07 1.07 0 0 0 .79-.31 2 2 0 1 1 0 2.78 1.032 1.032 0 0 0 -.79-.31l-12.85.92z"/><path d="m25 28a3 3 0 0 0 0-6v2a1 1 0 1 1 -1 1h-2a3 3 0 0 0 3 3z"/><path d="m25 36a3 3 0 0 0 -3 3h2a1 1 0 1 1 1 1v2a3 3 0 0 0 0-6z"/><path d="m39 36v2a1 1 0 1 1 -1 1h-2a3 3 0 1 0 3-3z"/><path d="m39 22a3 3 0 0 0 0 6v-2a1 1 0 1 1 1-1h2a3 3 0 0 0 -3-3z"/><path d="m32 28a4 4 0 1 0 4 4 4 4 0 0 0 -4-4zm0 6a2 2 0 1 1 2-2 2 2 0 0 1 -2 2z"/></g></svg>